<svg width="140" height="40" viewBox="0 0 140 40" fill="none" xmlns="http://www.w3.org/2000/svg">
<path d="M7.40922 32.8194L12.2842 30.4236C13.1853 31.908 14.7478 32.6528 16.9717 32.6528C17.9978 32.6528 18.9561 32.3194 19.8467 31.6528C20.7321 30.9861 21.1801 29.9705 21.1801 28.6111V27.3194C20.1228 28.4861 18.2321 29.0694 15.5134 29.0694C13.0238 29.0694 10.9717 28.1944 9.34672 26.4444C7.73214 24.684 6.93005 22.5226 6.93005 19.9653C6.93005 17.3976 7.73214 15.2309 9.34672 13.4653C10.9717 11.6892 13.0238 10.7986 15.5134 10.7986C17.7321 10.7986 19.5863 11.4809 21.0759 12.8403H21.1801V11.2986H27.1384V29.0486C27.1384 31.8507 26.2061 34.0122 24.3467 35.5278C22.4821 37.0538 20.0238 37.8194 16.9717 37.8194C12.0238 37.8194 8.8363 36.1528 7.40922 32.8194ZM14.4092 17.0278C13.6436 17.7934 13.2634 18.7726 13.2634 19.9653C13.2634 21.1476 13.628 22.1111 14.3676 22.8611C15.1176 23.6111 16.0967 23.9861 17.3051 23.9861C18.4717 23.9861 19.4301 23.6059 20.1801 22.8403C20.9301 22.0799 21.3051 21.1111 21.3051 19.9444C21.3051 18.7674 20.9144 17.7934 20.1384 17.0278C19.3728 16.2674 18.4301 15.8819 17.3051 15.8819C16.1488 15.8819 15.1853 16.2674 14.4092 17.0278Z" fill="white"/>
<path d="M48.6382 20.7569H36.1174C36.1174 21.9653 36.5028 22.8611 37.2841 23.4444C38.0757 24.0278 38.9299 24.3194 39.8466 24.3194C40.8049 24.3194 41.5601 24.1944 42.1174 23.9444C42.6851 23.684 43.3309 23.1684 44.0549 22.4028L48.3674 24.5694C46.5601 27.5694 43.5757 29.0694 39.4091 29.0694C36.7945 29.0694 34.5601 28.184 32.7007 26.4028C30.8361 24.6111 29.9091 22.4601 29.9091 19.9444C29.9091 17.434 30.8361 15.2778 32.7007 13.4861C34.5601 11.6944 36.7945 10.7986 39.4091 10.7986C42.1434 10.7986 44.3674 11.5903 46.0757 13.1736C47.7945 14.7569 48.6591 17.0174 48.6591 19.9444C48.6591 20.3507 48.6486 20.6215 48.6382 20.7569ZM36.2841 17.4653H42.8466C42.7059 16.5642 42.3518 15.8767 41.7841 15.4028C41.2111 14.9184 40.4768 14.6736 39.5757 14.6736C38.5861 14.6736 37.8049 14.934 37.2216 15.4444C36.6382 15.9601 36.3257 16.6319 36.2841 17.4653Z" fill="white"/>
<path d="M52.6132 26.4444C50.9986 24.684 50.1965 22.5226 50.1965 19.9653C50.1965 17.3976 50.9986 15.2309 52.6132 13.4653C54.2382 11.6892 56.2903 10.7986 58.7799 10.7986C61.0715 10.7986 62.957 11.5174 64.4465 12.9444V11.2986H70.4049V28.5694H64.509V26.6111H64.4465C62.957 28.2517 61.0715 29.0694 58.7799 29.0694C56.2903 29.0694 54.2382 28.1944 52.6132 26.4444ZM57.6757 17.0278C56.9101 17.7934 56.5299 18.7726 56.5299 19.9653C56.5299 21.1476 56.8944 22.1111 57.634 22.8611C58.384 23.6111 59.3632 23.9861 60.5715 23.9861C61.7382 23.9861 62.6965 23.6059 63.4465 22.8403C64.1965 22.0799 64.5715 21.1111 64.5715 19.9444C64.5715 18.7674 64.1809 17.7934 63.4049 17.0278C62.6392 16.2674 61.6965 15.8819 60.5715 15.8819C59.4153 15.8819 58.4517 16.2674 57.6757 17.0278Z" fill="white"/>
<path d="M74.4255 28.5694V11.2986H80.3839V13.7986H80.4464C80.488 13.7049 80.5557 13.5903 80.6547 13.4653C80.7641 13.3299 80.988 13.0903 81.3214 12.7569C81.6547 12.4132 82.0089 12.1059 82.3839 11.8403C82.7693 11.5642 83.2693 11.3194 83.8839 11.1111C84.4932 10.9028 85.113 10.7986 85.738 10.7986C86.3891 10.7986 87.0297 10.8924 87.6547 11.0694C88.2797 11.2517 88.738 11.434 89.0297 11.6111L89.5089 11.8611L87.0089 16.9236C86.2693 16.2986 85.2432 15.9861 83.9255 15.9861C83.2016 15.9861 82.5818 16.1476 82.0714 16.4653C81.5557 16.7726 81.186 17.1528 80.9672 17.6111C80.7589 18.059 80.6026 18.4392 80.5089 18.7569C80.4255 19.0642 80.3839 19.309 80.3839 19.4861V28.5694H74.4255Z" fill="white"/>
<path d="M96.8054 11.2986V19.5069C96.8054 21.2153 97.0606 22.434 97.5762 23.1528C98.0866 23.8767 98.9616 24.2361 100.201 24.2361C101.436 24.2361 102.311 23.8767 102.826 23.1528C103.337 22.434 103.597 21.2153 103.597 19.5069V11.2986H109.555V20.9653C109.555 23.8403 108.805 25.9132 107.305 27.1736C105.816 28.4392 103.451 29.0694 100.201 29.0694C96.9512 29.0694 94.5762 28.4392 93.0762 27.1736C91.5866 25.9132 90.847 23.8403 90.847 20.9653V11.2986H96.8054Z" fill="white"/>
<path d="M131.022 13.4444C132.647 15.1944 133.459 17.3559 133.459 19.9236C133.459 22.4809 132.647 24.6476 131.022 26.4236C129.407 28.1892 127.355 29.0694 124.855 29.0694C122.574 29.0694 120.694 28.3559 119.209 26.9236V37.3194H113.251V11.2986H119.147V13.2569H119.209C120.694 11.6215 122.574 10.7986 124.855 10.7986C127.355 10.7986 129.407 11.684 131.022 13.4444ZM125.959 22.8403C126.735 22.0799 127.126 21.1059 127.126 19.9236C127.126 18.7309 126.751 17.7569 126.001 17.0069C125.261 16.2569 124.293 15.8819 123.084 15.8819C121.918 15.8819 120.959 16.2674 120.209 17.0278C119.459 17.7934 119.084 18.7569 119.084 19.9236C119.084 21.1059 119.465 22.0799 120.23 22.8403C121.006 23.6059 121.959 23.9861 123.084 23.9861C124.22 23.9861 125.178 23.6059 125.959 22.8403Z" fill="white"/>
</svg>
